KRSPY-parametric-WideBlackMaxGrade-maxXOPQminYOPQmaxXTRA.ufo
<glyph name="comma" format="2">
  <advance width="1220"/>
  <unicode hex="002C"/>
  <outline>
    <contour>
      <point x="732" y="-37" type="line"/>
      <point x="1019" y="0" type="line"/>
      <point x="1019" y="2" type="line"/>
      <point x="226" y="2" type="line"/>
      <point x="79" y="2" type="line"/>
      <point x="79" y="0" type="line"/>
      <point x="579" y="0" type="line"/>
      <point x="579" y="-37" type="line"/>
    </contour>
  </outline>
</glyph>
<glyph name="period" format="2">
  <advance width="1272"/>
  <unicode hex="002E"/>
  <outline>
    <contour>
      <point x="1010" y="0" type="line" identifier="1m237t4hyw"/>
      <point x="1131" y="0" type="line" identifier="v7N4yg5XNk"/>
      <point x="1131" y="2" type="line"/>
      <point x="278" y="2" type="line" identifier="zfocDyDTCM"/>
      <point x="157" y="2" type="line"/>
      <point x="157" y="0" type="line" identifier="S4rO5KuHiL"/>
    </contour>
  </outline>
</glyph>
<glyph name="three" format="2">
  <advance width="5073"/>
  <unicode hex="0033"/>
  <outline>
    <contour>
      <point x="121" y="0" type="line" identifier="O9abUc1nmN"/>
      <point x="4932" y="0" type="line" identifier="kMJYMTfXCq"/>
      <point x="4932" y="794" type="line" identifier="su2XmdS8e8"/>
      <point x="4512" y="801" type="line" identifier="JQaOzDQqlF"/>
      <point x="4427" y="802" type="line"/>
      <point x="4837" y="1107" type="line" identifier="S91TzLL02W"/>
      <point x="4837" y="1600" type="line" identifier="xg8x2Ki40p"/>
      <point x="145" y="1600" type="line" identifier="pE1XSRiy68"/>
      <point x="145" y="1479" type="line" identifier="5lNstGRcSF"/>
      <point x="1084" y="1479" type="line" identifier="AcE5xKDZfE"/>
      <point x="1084" y="1598" type="line" identifier="7ogBYufWpl"/>
      <point x="3694" y="1598" type="line" identifier="RHLvSX2Jv6"/>
      <point x="3694" y="918" type="line" identifier="YUjTrmoWd9"/>
      <point x="3500" y="804" type="line"/>
      <point x="3585" y="802" type="line" identifier="iic1IBkDqp"/>
      <point x="1335" y="802" type="line" identifier="lRLJEhXMlO"/>
      <point x="1335" y="800" type="line" identifier="8aKgEELrVU"/>
      <point x="3993" y="800" type="line" identifier="Dm8zjmbhNr"/>
      <point x="3993" y="2" type="line" identifier="xv9CFHiFgB"/>
      <point x="1061" y="2" type="line" identifier="YajKQV3MHP"/>
      <point x="1061" y="116" type="line" identifier="36SchVkwze"/>
      <point x="121" y="116" type="line" identifier="tVui9PiOjA"/>
    </contour>
  </outline>
</glyph>
<glyph name="four" format="2">
  <advance width="4997"/>
  <unicode hex="0034"/>
  <outline>
    <contour>
      <point x="3539" y="0" type="line"/>
      <point x="4477" y="0" type="line"/>
      <point x="4477" y="800" type="line"/>
      <point x="4875" y="800" type="line"/>
      <point x="4875" y="802" type="line"/>
      <point x="4477" y="802" type="line"/>
      <point x="4477" y="1600" type="line"/>
      <point x="3539" y="1600" type="line"/>
      <point x="3539" y="802" type="line"/>
      <point x="1059" y="802" type="line"/>
      <point x="1059" y="1100" type="line"/>
      <point x="1523" y="1680" type="line"/>
      <point x="585" y="1680" type="line"/>
      <point x="121" y="1100" type="line"/>
      <point x="121" y="800" type="line"/>
      <point x="3539" y="800" type="line"/>
    </contour>
  </outline>
</glyph>
<glyph name="eight" format="2">
  <advance width="5300"/>
  <unicode hex="0038"/>
  <outline>
    <contour>
      <point x="3812" y="799" type="line"/>
      <point x="4161" y="536" type="line"/>
      <point x="4161" y="2" type="line"/>
      <point x="1140" y="2" type="line"/>
      <point x="1140" y="536" type="line"/>
      <point x="1489" y="799" type="line"/>
    </contour>
    <contour>
      <point x="4741" y="799" type="line"/>
      <point x="4741" y="801" type="line"/>
      <point x="5096" y="1067" type="line"/>
      <point x="5096" y="1600" type="line"/>
      <point x="204" y="1600" type="line"/>
      <point x="204" y="1067" type="line"/>
      <point x="560" y="801" type="line"/>
      <point x="560" y="799" type="line"/>
      <point x="201" y="519" type="line"/>
      <point x="201" y="0" type="line"/>
      <point x="5099" y="0" type="line"/>
      <point x="5099" y="519" type="line"/>
    </contour>
    <contour>
      <point x="1489" y="801" type="line"/>
      <point x="1143" y="1050" type="line"/>
      <point x="1143" y="1598" type="line"/>
      <point x="4158" y="1598" type="line"/>
      <point x="4158" y="1050" type="line"/>
      <point x="3812" y="801" type="line"/>
    </contour>
  </outline>
</glyph>
<glyph name="B" format="2">
  <advance width="5209"/>
  <unicode hex="0042"/>
  <outline>
    <contour>
      <point x="180" y="0" type="line" identifier="hvY9r8RmLr"/>
      <point x="5067" y="0" type="line" identifier="9QFpw7nfq7"/>
      <point x="5067" y="527" type="line" identifier="543PerILpr"/>
      <point x="4721" y="800" type="line" identifier="zhomauHW30"/>
      <point x="4721" y="802" type="line" identifier="870ZhtaozS"/>
      <point x="5008" y="1067" type="line" identifier="eGKH52Jgnk"/>
      <point x="5008" y="1600" type="line" identifier="FaP204GrdB"/>
      <point x="180" y="1600" type="line" identifier="JEev70GAj6"/>
    </contour>
    <contour>
      <point x="1119" y="801" type="line" identifier="By7dfMihfe"/>
      <point x="1119" y="1598" type="line" identifier="1p5hKrurVy"/>
      <point x="4070" y="1598" type="line" identifier="Qby8aMtF2X"/>
      <point x="4070" y="1052" type="line" identifier="9lW01gQyU2"/>
      <point x="3790" y="801" type="line" identifier="xpxyvIzPoc"/>
    </contour>
    <contour>
      <point x="1119" y="2" type="line" identifier="jaMSiLrCua"/>
      <point x="1119" y="799" type="line" identifier="XSrxNd2axx"/>
      <point x="3791" y="799" type="line" identifier="VyYlzRh5nq"/>
      <point x="4129" y="542" type="line" identifier="lsRGatjQja"/>
      <point x="4129" y="2" type="line" identifier="xhlDJ3CjD5"/>
    </contour>
  </outline>
</glyph>
<glyph name="M" format="2">
  <advance width="6951"/>
  <unicode hex="004D"/>
  <outline>
    <contour>
      <point x="2902" y="13" type="line" identifier="0Dn4Xpf57M"/>
      <point x="1650" y="1598" type="line"/>
      <point x="1178" y="1598" type="line"/>
      <point x="1178" y="0" type="line"/>
      <point x="248" y="0" type="line"/>
      <point x="248" y="1600" type="line"/>
      <point x="2004" y="1600" type="line"/>
      <point x="3254" y="15" type="line"/>
      <point x="3698" y="15" type="line" identifier="9aKZPM0HPh"/>
      <point x="4945" y="1600" type="line"/>
      <point x="6703" y="1600" type="line"/>
      <point x="6703" y="0" type="line"/>
      <point x="5772" y="0" type="line"/>
      <point x="5772" y="1598" type="line"/>
      <point x="5300" y="1598" type="line"/>
      <point x="4050" y="13" type="line" identifier="spdoeeCFft"/>
    </contour>
  </outline>
</glyph>
<glyph name="P" format="2">
  <advance width="4757"/>
  <unicode hex="0050"/>
  <outline>
    <contour>
      <point x="248" y="0" type="line" identifier="EG08jqU5fb"/>
      <point x="1187" y="0" type="line" identifier="osRzIFK2Cu"/>
      <point x="1187" y="598" type="line" identifier="hIFVovVRwe"/>
      <point x="4612" y="832" type="line" identifier="Tt6D8zYZmU"/>
      <point x="4612" y="1600" type="line" identifier="6xW04auDFu"/>
      <point x="248" y="1600" type="line" identifier="eETO5GBD5v"/>
    </contour>
    <contour>
      <point x="1187" y="600" type="line" identifier="PIBVN1PGv1"/>
      <point x="1187" y="1598" type="line" identifier="IZIZQr2gYJ"/>
      <point x="3673" y="1598" type="line" identifier="2c4LCF1E1R"/>
      <point x="3673" y="767" type="line" identifier="1WCnzth1GX"/>
    </contour>
  </outline>
</glyph>
<glyph name="R" format="2">
  <advance width="5213"/>
  <unicode hex="0052"/>
  <outline>
    <contour>
      <point x="1119" y="801" type="line"/>
      <point x="1119" y="1598" type="line"/>
      <point x="4130" y="1598" type="line"/>
      <point x="4130" y="1053" type="line"/>
      <point x="3795" y="801" type="line"/>
    </contour>
    <contour>
      <point x="5072" y="0" type="line"/>
      <point x="4708" y="801" type="line"/>
      <point x="5069" y="1067" type="line"/>
      <point x="5069" y="1600" type="line"/>
      <point x="180" y="1600" type="line"/>
      <point x="180" y="0" type="line"/>
      <point x="1119" y="0" type="line"/>
      <point x="1119" y="799" type="line"/>
      <point x="3795" y="799" type="line"/>
      <point x="4136" y="0" type="line"/>
    </contour>
  </outline>
</glyph>
<glyph name="S" format="2">
  <advance width="4809"/>
  <unicode hex="0053"/>
  <outline>
    <contour>
      <point x="147" y="0" type="line" identifier="09VlJ0BjUX"/>
      <point x="4664" y="0" type="line" identifier="EagWihqFM8"/>
      <point x="4664" y="801" type="line" identifier="KfNuQA7eZe"/>
      <point x="1083" y="801" type="line" identifier="At364YZFEy"/>
      <point x="1083" y="1282" type="line"/>
      <point x="1445" y="1598" type="line"/>
      <point x="3725" y="1598" type="line" identifier="3ZUkG35meB"/>
      <point x="3725" y="1161" type="line" identifier="DTOJhFIl15"/>
      <point x="4664" y="1161" type="line" identifier="9KDcrfQ5Ui"/>
      <point x="4664" y="1600" type="line" identifier="SaF9ojRFrW"/>
      <point x="533" y="1600" type="line"/>
      <point x="146" y="1287" type="line"/>
      <point x="146" y="799" type="line" identifier="3sQ8t8BZ6b"/>
      <point x="3725" y="799" type="line" identifier="yiV6OCBLHg"/>
      <point x="3725" y="2" type="line" identifier="9kdl9SYsn8"/>
      <point x="1086" y="2" type="line" identifier="yZDWuX8LLe"/>
      <point x="1086" y="442" type="line" identifier="jYb9001DTm"/>
      <point x="147" y="442" type="line" identifier="ho4DrS0rdW"/>
    </contour>
  </outline>
</glyph>
<glyph name="U" format="2">
  <advance width="4929"/>
  <unicode hex="0055"/>
  <outline>
    <contour>
      <point x="3809" y="1600" type="line" smooth="yes"/>
      <point x="3809" y="2" type="line"/>
      <point x="1550" y="2" type="line" smooth="yes"/>
      <point x="1080" y="483" type="line" smooth="yes"/>
      <point x="1080" y="1600" type="line"/>
      <point x="141" y="1600" type="line" smooth="yes"/>
      <point x="141" y="480" type="line" smooth="yes"/>
      <point x="624" y="0" type="line" smooth="yes"/>
      <point x="4749" y="0" type="line" smooth="yes"/>
      <point x="4749" y="1600" type="line" smooth="yes"/>
    </contour>
  </outline>
</glyph>
<glyph name="X" format="2">
  <advance width="5130"/>
  <unicode hex="0058"/>
  <outline>
    <contour>
      <point x="3784" y="799" type="line"/>
      <point x="4050" y="536" type="line"/>
      <point x="4050" y="0" type="line"/>
      <point x="4989" y="0" type="line"/>
      <point x="4989" y="519" type="line"/>
      <point x="4630" y="799" type="line"/>
      <point x="4630" y="801" type="line"/>
      <point x="4986" y="1101" type="line"/>
      <point x="4986" y="1600" type="line"/>
      <point x="4047" y="1600" type="line"/>
      <point x="4047" y="1050" type="line"/>
      <point x="3784" y="801" type="line"/>
      <point x="1347" y="801" type="line"/>
      <point x="1083" y="1050" type="line"/>
      <point x="1083" y="1600" type="line"/>
      <point x="144" y="1600" type="line"/>
      <point x="144" y="1101" type="line"/>
      <point x="501" y="801" type="line"/>
      <point x="501" y="799" type="line"/>
      <point x="141" y="519" type="line"/>
      <point x="141" y="0" type="line"/>
      <point x="1080" y="0" type="line"/>
      <point x="1080" y="536" type="line"/>
      <point x="1347" y="799" type="line"/>
    </contour>
  </outline>
</glyph>
<glyph name="Z" format="2">
  <advance width="4848"/>
  <unicode hex="005A"/>
  <outline>
    <contour>
      <point x="145" y="0" type="line"/>
      <point x="4703" y="0" type="line" identifier="pzdvPTirLJ"/>
      <point x="4703" y="398" type="line" identifier="91SxUS0iwG"/>
      <point x="3763" y="398" type="line"/>
      <point x="3763" y="2" type="line"/>
      <point x="1085" y="2" type="line"/>
      <point x="1085" y="420" type="line"/>
      <point x="4681" y="1271" type="line" identifier="yyb1NCCI5w"/>
      <point x="4681" y="1600" type="line" identifier="5FogYRSgkk"/>
      <point x="165" y="1600" type="line" identifier="svlFvrau4c"/>
      <point x="165" y="1272" type="line" identifier="LQ9fBsTy9K"/>
      <point x="1097" y="1272" type="line"/>
      <point x="1097" y="1598" type="line"/>
      <point x="3741" y="1598" type="line"/>
      <point x="3741" y="1367" type="line"/>
      <point x="145" y="543" type="line" identifier="teVKnpBcVb"/>
    </contour>
  </outline>
</glyph>
<glyph name="B.narrow" format="2">
  <advance width="5336"/>
  <outline>
    <contour>
      <point x="248" y="0" type="line" identifier="hvY9r8RmLr"/>
      <point x="5135" y="0" type="line" identifier="9QFpw7nfq7"/>
      <point x="5135" y="563" type="line" identifier="543PerILpr"/>
      <point x="4785" y="832" type="line" identifier="870ZhtaozS"/>
      <point x="5076" y="886" type="line" identifier="eGKH52Jgnk"/>
      <point x="5076" y="1600" type="line" identifier="FaP204GrdB"/>
      <point x="248" y="1600" type="line" identifier="JEev70GAj6"/>
    </contour>
    <contour>
      <point x="1187" y="621" type="line" identifier="By7dfMihfe"/>
      <point x="1187" y="1598" type="line" identifier="1p5hKrurVy"/>
      <point x="4137" y="1598" type="line" identifier="Qby8aMtF2X"/>
      <point x="4137" y="827" type="line" identifier="9lW01gQyU2"/>
    </contour>
    <contour>
      <point x="1187" y="2" type="line" identifier="jaMSiLrCua"/>
      <point x="1187" y="619" type="line" identifier="XSrxNd2axx"/>
      <point x="3857" y="803" type="line" identifier="VyYlzRh5nq"/>
      <point x="4196" y="542" type="line" identifier="lsRGatjQja"/>
      <point x="4196" y="2" type="line" identifier="xhlDJ3CjD5"/>
    </contour>
  </outline>
</glyph>
<glyph name="G.wide" format="2">
  <advance width="5012"/>
  <outline>
    <contour>
      <point x="141" y="0" type="line" identifier="7lPhzTnk2Z"/>
      <point x="4807" y="0" type="line" identifier="qJVLZGnkwh"/>
      <point x="4807" y="797" type="line" identifier="uek1NNj7De"/>
      <point x="2115" y="797" type="line" identifier="qcvimxjndX"/>
      <point x="2115" y="795" type="line" identifier="EARaY3Su65"/>
      <point x="3869" y="795" type="line" identifier="4m6dHLVhZq"/>
      <point x="3869" y="2" type="line" identifier="Y750RHTvDj"/>
      <point x="1080" y="2" type="line" identifier="L2LsGnXiZ2"/>
      <point x="1080" y="1117" type="line" identifier="sUWsr03vF4"/>
      <point x="1545" y="1598" type="line" identifier="dbOUe6OhxL"/>
      <point x="4806" y="1598" type="line" identifier="5BjRbcud80"/>
      <point x="4806" y="1600" type="line" identifier="9eJelv8BOw"/>
      <point x="609" y="1600" type="line" identifier="lfZev3ICaC"/>
      <point x="141" y="1120" type="line" identifier="V1EWIdPahq"/>
    </contour>
  </outline>
</glyph>
<glyph name="I.narrow" format="2">
  <advance width="1409"/>
  <outline>
    <contour>
      <point x="1174" y="2" type="line" identifier="1m237t4hyw"/>
      <point x="1174" y="1600" type="line" identifier="v7N4yg5XNk"/>
      <point x="235" y="1600" type="line" identifier="zfocDyDTCM"/>
      <point x="235" y="2" type="line" identifier="S4rO5KuHiL"/>
    </contour>
  </outline>
</glyph>
<glyph name="K.alt" format="2">
  <advance width="5336"/>
  <outline>
    <contour>
      <point x="1163" y="0" type="line" identifier="wmNm7XZsaF"/>
      <point x="1163" y="799" type="line" identifier="O22liaP9Qk"/>
      <point x="3792" y="799" type="line" identifier="ELFBWIb1vd"/>
      <point x="4075" y="793" type="line" identifier="DzXo67YEfw"/>
      <point x="4075" y="0" type="line" identifier="aKpYWD78l2"/>
      <point x="5014" y="0" type="line" identifier="ChS7KlqGi6"/>
      <point x="5014" y="784" type="line" identifier="sWLgkU8Vey"/>
      <point x="4485" y="799" type="line" identifier="Of0iQc0wBG"/>
      <point x="4768" y="1600" type="line" identifier="dMJ1ywOKQQ"/>
      <point x="3813" y="1600" type="line" identifier="08OWjR2YBJ"/>
      <point x="3546" y="801" type="line" identifier="g4YLdZEoM3"/>
      <point x="1163" y="801" type="line" identifier="uZuki3Isec"/>
      <point x="1163" y="1600" type="line" identifier="nRfcNgqJ4H"/>
      <point x="224" y="1600" type="line" identifier="3XJlWt89ad"/>
      <point x="224" y="0" type="line" identifier="wdbO8kCovY"/>
    </contour>
  </outline>
</glyph>
<glyph name="K.narrow" format="2">
  <advance width="5270"/>
  <outline>
    <contour>
      <point x="1188" y="0" type="line"/>
      <point x="1188" y="683" type="line"/>
      <point x="3825" y="827" type="line"/>
      <point x="4133" y="0" type="line"/>
      <point x="5069" y="0" type="line"/>
      <point x="4718" y="820" type="line"/>
      <point x="5007" y="837" type="line"/>
      <point x="5007" y="1600" type="line"/>
      <point x="4068" y="1600" type="line"/>
      <point x="4068" y="844" type="line"/>
      <point x="1188" y="685" type="line"/>
      <point x="1188" y="1600" type="line"/>
      <point x="248" y="1600" type="line"/>
      <point x="248" y="0" type="line"/>
    </contour>
  </outline>
</glyph>
<glyph name="L.wide" format="2">
  <advance width="4397"/>
  <outline>
    <contour>
      <point x="159" y="0" type="line" identifier="XkJNfQlnnt"/>
      <point x="4275" y="0" type="line" identifier="82EXZEgt46"/>
      <point x="4275" y="2" type="line" identifier="cqpSxwFiM3"/>
      <point x="1098" y="2" type="line" identifier="MbxRZRd8vz"/>
      <point x="1098" y="1600" type="line" identifier="lYiaKSKITt"/>
      <point x="159" y="1600" type="line" identifier="XFf4mMUzYo"/>
    </contour>
  </outline>
</glyph>
<glyph name="N.narrow" format="2">
  <advance width="5222"/>
  <outline>
    <contour>
      <point x="248" y="0" type="line" smooth="yes"/>
      <point x="1187" y="0" type="line"/>
      <point x="1187" y="1176" type="line"/>
      <point x="1370" y="1598" type="line"/>
      <point x="4034" y="1598" type="line"/>
      <point x="4034" y="0" type="line" smooth="yes"/>
      <point x="4974" y="0" type="line" smooth="yes"/>
      <point x="4974" y="1600" type="line" smooth="yes"/>
      <point x="1233" y="1600" type="line" smooth="yes"/>
      <point x="1099" y="1324" type="line"/>
      <point x="1029" y="1324" type="line"/>
      <point x="1029" y="1600" type="line"/>
      <point x="248" y="1600" type="line"/>
    </contour>
  </outline>
</glyph>
<glyph name="N.wide" format="2">
  <advance width="4990"/>
  <outline>
    <contour>
      <point x="248" y="0" type="line" identifier="CkwYPPvJLv"/>
      <point x="1187" y="0" type="line" identifier="oHTJsN7drZ"/>
      <point x="1187" y="1598" type="line" identifier="wfBbYd10Pm"/>
      <point x="1385" y="1598" type="line" identifier="MEnBDHq6zU"/>
      <point x="3348" y="0" type="line" identifier="3Nbopwznvn"/>
      <point x="4742" y="0" type="line" identifier="uKfuudIUvA"/>
      <point x="4742" y="1600" type="line" identifier="XRdLFXiM4t"/>
      <point x="3804" y="1600" type="line" identifier="MUSJPjCIXg"/>
      <point x="3804" y="7" type="line" identifier="VILP20cFmq"/>
      <point x="3602" y="7" type="line" identifier="z5b04GDwRN"/>
      <point x="1642" y="1600" type="line" identifier="LL64NQ6WBE"/>
      <point x="248" y="1600" type="line" identifier="dzUaaP1sjt"/>
    </contour>
  </outline>
</glyph>
<glyph name="R.alt" format="2">
  <advance width="5339"/>
  <outline>
    <contour>
      <point x="1161" y="802" type="line"/>
      <point x="1161" y="1599" type="line"/>
      <point x="4173" y="1599" type="line"/>
      <point x="4173" y="802" type="line"/>
    </contour>
    <contour>
      <point x="5115" y="1" type="line"/>
      <point x="4429" y="800" type="line"/>
      <point x="5111" y="800" type="line"/>
      <point x="5111" y="1601" type="line"/>
      <point x="223" y="1601" type="line"/>
      <point x="223" y="1" type="line"/>
      <point x="1161" y="1" type="line"/>
      <point x="1161" y="800" type="line"/>
      <point x="3500" y="800" type="line"/>
      <point x="4183" y="1" type="line"/>
    </contour>
  </outline>
</glyph>
<glyph name="S.alt" format="2">
  <advance width="4967"/>
  <outline>
    <contour>
      <point x="87" y="0" type="line" identifier="09VlJ0BjUX"/>
      <point x="4881" y="0" type="line" identifier="EagWihqFM8"/>
      <point x="4881" y="801" type="line" identifier="KfNuQA7eZe"/>
      <point x="1014" y="801" type="line" identifier="At364YZFEy"/>
      <point x="1014" y="1288" type="line"/>
      <point x="1365" y="1598" type="line"/>
      <point x="3942" y="1598" type="line" identifier="3ZUkG35meB"/>
      <point x="3942" y="1359" type="line" identifier="DTOJhFIl15"/>
      <point x="4881" y="1359" type="line" identifier="9KDcrfQ5Ui"/>
      <point x="4881" y="1600" type="line" identifier="SaF9ojRFrW"/>
      <point x="462" y="1600" type="line"/>
      <point x="85" y="1293" type="line"/>
      <point x="85" y="799" type="line" identifier="3sQ8t8BZ6b"/>
      <point x="3942" y="799" type="line" identifier="yiV6OCBLHg"/>
      <point x="3942" y="2" type="line" identifier="9kdl9SYsn8"/>
      <point x="1024" y="2" type="line" identifier="yZDWuX8LLe"/>
      <point x="1024" y="243" type="line" identifier="jYb9001DTm"/>
      <point x="87" y="243" type="line" identifier="ho4DrS0rdW"/>
    </contour>
  </outline>
</glyph>
<glyph name="S.wide" format="2">
  <advance width="4570"/>
  <outline>
    <contour>
      <point x="147" y="0" type="line" identifier="09VlJ0BjUX"/>
      <point x="4425" y="0" type="line" identifier="EagWihqFM8"/>
      <point x="4425" y="801" type="line" identifier="KfNuQA7eZe"/>
      <point x="1075" y="801" type="line" identifier="At364YZFEy"/>
      <point x="1075" y="1203" type="line"/>
      <point x="1431" y="1598" type="line"/>
      <point x="4425" y="1598" type="line" identifier="3ZUkG35meB"/>
      <point x="4425" y="1600" type="line" identifier="SaF9ojRFrW"/>
      <point x="528" y="1600" type="line"/>
      <point x="146" y="1208" type="line"/>
      <point x="146" y="799" type="line" identifier="3sQ8t8BZ6b"/>
      <point x="3486" y="799" type="line" identifier="yiV6OCBLHg"/>
      <point x="3486" y="2" type="line" identifier="9kdl9SYsn8"/>
      <point x="147" y="2" type="line" identifier="yZDWuX8LLe"/>
    </contour>
  </outline>
</glyph>
<glyph name="Z.wide" format="2">
  <advance width="4869"/>
  <outline>
    <contour>
      <point x="146" y="0" type="line"/>
      <point x="4724" y="0" type="line" identifier="pzdvPTirLJ"/>
      <point x="4724" y="2" type="line"/>
      <point x="1187" y="2" type="line"/>
      <point x="1187" y="283" type="line"/>
      <point x="4707" y="1158" type="line" identifier="yyb1NCCI5w"/>
      <point x="4707" y="1600" type="line" identifier="5FogYRSgkk"/>
      <point x="165" y="1600" type="line" identifier="svlFvrau4c"/>
      <point x="165" y="1598" type="line"/>
      <point x="3557" y="1598" type="line"/>
      <point x="3557" y="1483" type="line"/>
      <point x="146" y="618" type="line" identifier="teVKnpBcVb"/>
    </contour>
  </outline>
</glyph>
<glyph name="six.wide" format="2">
  <advance width="5334"/>
  <outline>
    <contour>
      <point x="224" y="0" type="line" identifier="uiw6aBUf4P"/>
      <point x="4941" y="0" type="line" identifier="jtYkxiUX6G"/>
      <point x="4941" y="801" type="line" identifier="2G5L37c87I"/>
      <point x="1162" y="801" type="line"/>
      <point x="1162" y="1265" type="line"/>
      <point x="1619" y="1598" type="line"/>
      <point x="4940" y="1598" type="line"/>
      <point x="4940" y="1600" type="line" identifier="oGvEEuxnYv"/>
      <point x="682" y="1600" type="line" identifier="xR3pEHbMJx"/>
      <point x="224" y="1266" type="line" identifier="KnMArb0tv8"/>
    </contour>
    <contour>
      <point x="4002" y="799" type="line"/>
      <point x="4002" y="2" type="line"/>
      <point x="1162" y="2" type="line"/>
      <point x="1162" y="799" type="line"/>
    </contour>
  </outline>
</glyph>
<glyph name="three.wide" format="2">
  <advance width="5010"/>
  <outline>
    <contour>
      <point x="121" y="0" type="line" identifier="O9abUc1nmN"/>
      <point x="4830" y="0" type="line" identifier="kMJYMTfXCq"/>
      <point x="4830" y="802" type="line" identifier="su2XmdS8e8"/>
      <point x="4410" y="802" type="line" identifier="JQaOzDQqlF"/>
      <point x="4410" y="803" type="line"/>
      <point x="4817" y="1105" type="line" identifier="S91TzLL02W"/>
      <point x="4817" y="1600" type="line" identifier="xg8x2Ki40p"/>
      <point x="145" y="1600" type="line" identifier="pE1XSRiy68"/>
      <point x="145" y="1598" type="line" identifier="7ogBYufWpl"/>
      <point x="3674" y="1598" type="line" identifier="RHLvSX2Jv6"/>
      <point x="3674" y="918" type="line" identifier="YUjTrmoWd9"/>
      <point x="3483" y="804" type="line"/>
      <point x="3483" y="802" type="line" identifier="iic1IBkDqp"/>
      <point x="911" y="802" type="line" identifier="lRLJEhXMlO"/>
      <point x="911" y="800" type="line" identifier="8aKgEELrVU"/>
      <point x="3891" y="800" type="line" identifier="Dm8zjmbhNr"/>
      <point x="3891" y="2" type="line" identifier="xv9CFHiFgB"/>
      <point x="121" y="2" type="line" identifier="YajKQV3MHP"/>
    </contour>
  </outline>
</glyph>
